<mxfile host="app.diagrams.net" agent="Mozilla/5.0 (Windows NT 10.0; Win64; x64) AppleWebKit/537.36 (KHTML, like Gecko) Chrome/135.0.0.0 Safari/537.36" version="26.2.13">
  <diagram id="R2lEEEUBdFMjLlhIrx00" name="Page-1">
    <mxGraphModel dx="1267" dy="450" grid="1" gridSize="10" guides="1" tooltips="1" connect="1" arrows="0" fold="1" page="1" pageScale="1" pageWidth="850" pageHeight="1100" math="0" shadow="0" extFonts="Permanent Marker^https://fonts.googleapis.com/css?family=Permanent+Marker">
      <root>
        <mxCell id="0" />
        <mxCell id="1" parent="0" />
        <mxCell id="9QJ5XjCFfJWJ0kEMM4Fc-1" value="Alunos" style="whiteSpace=wrap;html=1;align=center;fillColor=#fff2cc;strokeColor=#d6b656;" vertex="1" parent="1">
          <mxGeometry x="520" y="170" width="100" height="40" as="geometry" />
        </mxCell>
        <mxCell id="9QJ5XjCFfJWJ0kEMM4Fc-3" value="Departamentos" style="whiteSpace=wrap;html=1;align=center;fillColor=#fff2cc;strokeColor=#d6b656;" vertex="1" parent="1">
          <mxGeometry x="510" y="410" width="100" height="40" as="geometry" />
        </mxCell>
        <mxCell id="9QJ5XjCFfJWJ0kEMM4Fc-4" value="Disciplinas" style="whiteSpace=wrap;html=1;align=center;fillColor=#fff2cc;strokeColor=#d6b656;" vertex="1" parent="1">
          <mxGeometry x="290" y="520" width="100" height="40" as="geometry" />
        </mxCell>
        <mxCell id="9QJ5XjCFfJWJ0kEMM4Fc-5" value="Curso" style="whiteSpace=wrap;html=1;align=center;fillColor=#fff2cc;strokeColor=#d6b656;" vertex="1" parent="1">
          <mxGeometry x="290" y="290" width="100" height="40" as="geometry" />
        </mxCell>
        <mxCell id="9QJ5XjCFfJWJ0kEMM4Fc-8" value="Pre-requisito" style="shape=rhombus;perimeter=rhombusPerimeter;whiteSpace=wrap;html=1;align=center;fillColor=#d5e8d4;strokeColor=#82b366;" vertex="1" parent="1">
          <mxGeometry x="280" y="600" width="120" height="60" as="geometry" />
        </mxCell>
        <mxCell id="9QJ5XjCFfJWJ0kEMM4Fc-9" value="" style="endArrow=none;html=1;rounded=0;exitX=0.167;exitY=0.993;exitDx=0;exitDy=0;exitPerimeter=0;entryX=0;entryY=0;entryDx=0;entryDy=0;" edge="1" parent="1" source="9QJ5XjCFfJWJ0kEMM4Fc-4" target="9QJ5XjCFfJWJ0kEMM4Fc-8">
          <mxGeometry relative="1" as="geometry">
            <mxPoint x="360" y="400" as="sourcePoint" />
            <mxPoint x="520" y="400" as="targetPoint" />
          </mxGeometry>
        </mxCell>
        <mxCell id="9QJ5XjCFfJWJ0kEMM4Fc-11" value="n" style="edgeLabel;html=1;align=center;verticalAlign=middle;resizable=0;points=[];" vertex="1" connectable="0" parent="9QJ5XjCFfJWJ0kEMM4Fc-9">
          <mxGeometry x="0.0326" y="7" relative="1" as="geometry">
            <mxPoint as="offset" />
          </mxGeometry>
        </mxCell>
        <mxCell id="9QJ5XjCFfJWJ0kEMM4Fc-16" value="(0,N)" style="edgeLabel;html=1;align=center;verticalAlign=middle;resizable=0;points=[];" vertex="1" connectable="0" parent="9QJ5XjCFfJWJ0kEMM4Fc-9">
          <mxGeometry x="0.0061" y="6" relative="1" as="geometry">
            <mxPoint y="-1" as="offset" />
          </mxGeometry>
        </mxCell>
        <mxCell id="9QJ5XjCFfJWJ0kEMM4Fc-13" value="Responsável" style="shape=rhombus;perimeter=rhombusPerimeter;whiteSpace=wrap;html=1;align=center;fillColor=#d5e8d4;strokeColor=#82b366;" vertex="1" parent="1">
          <mxGeometry x="500" y="510" width="120" height="60" as="geometry" />
        </mxCell>
        <mxCell id="9QJ5XjCFfJWJ0kEMM4Fc-14" value="" style="endArrow=none;html=1;rounded=0;exitX=1;exitY=0.5;exitDx=0;exitDy=0;entryX=0;entryY=0.5;entryDx=0;entryDy=0;" edge="1" parent="1" source="9QJ5XjCFfJWJ0kEMM4Fc-4" target="9QJ5XjCFfJWJ0kEMM4Fc-13">
          <mxGeometry relative="1" as="geometry">
            <mxPoint x="360" y="400" as="sourcePoint" />
            <mxPoint x="520" y="400" as="targetPoint" />
          </mxGeometry>
        </mxCell>
        <mxCell id="9QJ5XjCFfJWJ0kEMM4Fc-17" value="(1,1)" style="edgeLabel;html=1;align=center;verticalAlign=middle;resizable=0;points=[];" vertex="1" connectable="0" parent="9QJ5XjCFfJWJ0kEMM4Fc-14">
          <mxGeometry x="0.0189" y="-2" relative="1" as="geometry">
            <mxPoint as="offset" />
          </mxGeometry>
        </mxCell>
        <mxCell id="9QJ5XjCFfJWJ0kEMM4Fc-15" value="" style="endArrow=none;html=1;rounded=0;exitX=0.5;exitY=0;exitDx=0;exitDy=0;entryX=0.5;entryY=1;entryDx=0;entryDy=0;" edge="1" parent="1" source="9QJ5XjCFfJWJ0kEMM4Fc-13" target="9QJ5XjCFfJWJ0kEMM4Fc-3">
          <mxGeometry relative="1" as="geometry">
            <mxPoint x="360" y="400" as="sourcePoint" />
            <mxPoint x="570" y="440" as="targetPoint" />
          </mxGeometry>
        </mxCell>
        <mxCell id="9QJ5XjCFfJWJ0kEMM4Fc-18" value="(1,N)" style="edgeLabel;html=1;align=center;verticalAlign=middle;resizable=0;points=[];" vertex="1" connectable="0" parent="9QJ5XjCFfJWJ0kEMM4Fc-15">
          <mxGeometry x="0.2756" y="-3" relative="1" as="geometry">
            <mxPoint as="offset" />
          </mxGeometry>
        </mxCell>
        <mxCell id="9QJ5XjCFfJWJ0kEMM4Fc-19" value="Currículo" style="shape=rhombus;perimeter=rhombusPerimeter;whiteSpace=wrap;html=1;align=center;fillColor=#d5e8d4;strokeColor=#82b366;" vertex="1" parent="1">
          <mxGeometry x="280" y="410" width="120" height="60" as="geometry" />
        </mxCell>
        <mxCell id="9QJ5XjCFfJWJ0kEMM4Fc-20" value="" style="endArrow=none;html=1;rounded=0;entryX=0.5;entryY=0;entryDx=0;entryDy=0;exitX=0.5;exitY=1;exitDx=0;exitDy=0;" edge="1" parent="1" source="9QJ5XjCFfJWJ0kEMM4Fc-19" target="9QJ5XjCFfJWJ0kEMM4Fc-4">
          <mxGeometry relative="1" as="geometry">
            <mxPoint x="360" y="400" as="sourcePoint" />
            <mxPoint x="520" y="400" as="targetPoint" />
          </mxGeometry>
        </mxCell>
        <mxCell id="9QJ5XjCFfJWJ0kEMM4Fc-23" value="(0,N)" style="edgeLabel;html=1;align=center;verticalAlign=middle;resizable=0;points=[];" vertex="1" connectable="0" parent="9QJ5XjCFfJWJ0kEMM4Fc-20">
          <mxGeometry x="-0.2286" relative="1" as="geometry">
            <mxPoint as="offset" />
          </mxGeometry>
        </mxCell>
        <mxCell id="9QJ5XjCFfJWJ0kEMM4Fc-21" value="" style="endArrow=none;html=1;rounded=0;entryX=0.5;entryY=1;entryDx=0;entryDy=0;exitX=0.5;exitY=0;exitDx=0;exitDy=0;" edge="1" parent="1" source="9QJ5XjCFfJWJ0kEMM4Fc-19" target="9QJ5XjCFfJWJ0kEMM4Fc-5">
          <mxGeometry relative="1" as="geometry">
            <mxPoint x="260" y="410" as="sourcePoint" />
            <mxPoint x="370" y="430" as="targetPoint" />
          </mxGeometry>
        </mxCell>
        <mxCell id="9QJ5XjCFfJWJ0kEMM4Fc-22" value="(0,N)" style="edgeLabel;html=1;align=center;verticalAlign=middle;resizable=0;points=[];" vertex="1" connectable="0" parent="9QJ5XjCFfJWJ0kEMM4Fc-21">
          <mxGeometry x="-0.0403" y="1" relative="1" as="geometry">
            <mxPoint as="offset" />
          </mxGeometry>
        </mxCell>
        <mxCell id="9QJ5XjCFfJWJ0kEMM4Fc-24" value="Inscrição" style="shape=rhombus;perimeter=rhombusPerimeter;whiteSpace=wrap;html=1;align=center;fillColor=#d5e8d4;strokeColor=#82b366;" vertex="1" parent="1">
          <mxGeometry x="280" y="160" width="120" height="60" as="geometry" />
        </mxCell>
        <mxCell id="9QJ5XjCFfJWJ0kEMM4Fc-25" value="" style="endArrow=none;html=1;rounded=0;exitX=1;exitY=0.5;exitDx=0;exitDy=0;entryX=0;entryY=0.5;entryDx=0;entryDy=0;" edge="1" parent="1" source="9QJ5XjCFfJWJ0kEMM4Fc-24" target="9QJ5XjCFfJWJ0kEMM4Fc-1">
          <mxGeometry relative="1" as="geometry">
            <mxPoint x="360" y="250" as="sourcePoint" />
            <mxPoint x="520" y="250" as="targetPoint" />
          </mxGeometry>
        </mxCell>
        <mxCell id="9QJ5XjCFfJWJ0kEMM4Fc-27" value="(1,1)" style="edgeLabel;html=1;align=center;verticalAlign=middle;resizable=0;points=[];" vertex="1" connectable="0" parent="9QJ5XjCFfJWJ0kEMM4Fc-25">
          <mxGeometry x="0.0381" y="-1" relative="1" as="geometry">
            <mxPoint as="offset" />
          </mxGeometry>
        </mxCell>
        <mxCell id="9QJ5XjCFfJWJ0kEMM4Fc-26" value="" style="endArrow=none;html=1;rounded=0;exitX=0.5;exitY=1;exitDx=0;exitDy=0;entryX=0.5;entryY=0;entryDx=0;entryDy=0;" edge="1" parent="1" source="9QJ5XjCFfJWJ0kEMM4Fc-24" target="9QJ5XjCFfJWJ0kEMM4Fc-5">
          <mxGeometry relative="1" as="geometry">
            <mxPoint x="360" y="250" as="sourcePoint" />
            <mxPoint x="520" y="250" as="targetPoint" />
          </mxGeometry>
        </mxCell>
        <mxCell id="9QJ5XjCFfJWJ0kEMM4Fc-28" value="(0,N)" style="edgeLabel;html=1;align=center;verticalAlign=middle;resizable=0;points=[];" vertex="1" connectable="0" parent="9QJ5XjCFfJWJ0kEMM4Fc-26">
          <mxGeometry x="0.1886" relative="1" as="geometry">
            <mxPoint as="offset" />
          </mxGeometry>
        </mxCell>
        <mxCell id="9QJ5XjCFfJWJ0kEMM4Fc-29" value="Nome" style="ellipse;whiteSpace=wrap;html=1;align=center;fontStyle=4;" vertex="1" parent="1">
          <mxGeometry x="650" y="440" width="100" height="40" as="geometry" />
        </mxCell>
        <mxCell id="9QJ5XjCFfJWJ0kEMM4Fc-30" value="Número" style="ellipse;whiteSpace=wrap;html=1;align=center;fontStyle=4;" vertex="1" parent="1">
          <mxGeometry x="650" y="380" width="100" height="40" as="geometry" />
        </mxCell>
        <mxCell id="9QJ5XjCFfJWJ0kEMM4Fc-31" value="" style="endArrow=none;html=1;rounded=0;entryX=0;entryY=0.5;entryDx=0;entryDy=0;exitX=1;exitY=0;exitDx=0;exitDy=0;" edge="1" parent="1" source="9QJ5XjCFfJWJ0kEMM4Fc-3" target="9QJ5XjCFfJWJ0kEMM4Fc-30">
          <mxGeometry relative="1" as="geometry">
            <mxPoint x="360" y="250" as="sourcePoint" />
            <mxPoint x="520" y="250" as="targetPoint" />
          </mxGeometry>
        </mxCell>
        <mxCell id="9QJ5XjCFfJWJ0kEMM4Fc-32" value="" style="endArrow=none;html=1;rounded=0;entryX=0;entryY=0.5;entryDx=0;entryDy=0;exitX=1;exitY=1;exitDx=0;exitDy=0;" edge="1" parent="1" source="9QJ5XjCFfJWJ0kEMM4Fc-3" target="9QJ5XjCFfJWJ0kEMM4Fc-29">
          <mxGeometry relative="1" as="geometry">
            <mxPoint x="360" y="250" as="sourcePoint" />
            <mxPoint x="520" y="250" as="targetPoint" />
          </mxGeometry>
        </mxCell>
        <mxCell id="9QJ5XjCFfJWJ0kEMM4Fc-33" value="RA" style="ellipse;whiteSpace=wrap;html=1;align=center;fontStyle=4;" vertex="1" parent="1">
          <mxGeometry x="650" y="140" width="100" height="40" as="geometry" />
        </mxCell>
        <mxCell id="9QJ5XjCFfJWJ0kEMM4Fc-34" value="Data de inscrição" style="ellipse;whiteSpace=wrap;html=1;align=center;" vertex="1" parent="1">
          <mxGeometry x="290" y="80" width="100" height="40" as="geometry" />
        </mxCell>
        <mxCell id="9QJ5XjCFfJWJ0kEMM4Fc-35" value="Nome" style="ellipse;whiteSpace=wrap;html=1;align=center;" vertex="1" parent="1">
          <mxGeometry x="650" y="200" width="100" height="40" as="geometry" />
        </mxCell>
        <mxCell id="9QJ5XjCFfJWJ0kEMM4Fc-37" value="" style="endArrow=none;html=1;rounded=0;exitX=0.5;exitY=1;exitDx=0;exitDy=0;entryX=0.5;entryY=0;entryDx=0;entryDy=0;" edge="1" parent="1" source="9QJ5XjCFfJWJ0kEMM4Fc-34" target="9QJ5XjCFfJWJ0kEMM4Fc-24">
          <mxGeometry relative="1" as="geometry">
            <mxPoint x="360" y="280" as="sourcePoint" />
            <mxPoint x="520" y="280" as="targetPoint" />
          </mxGeometry>
        </mxCell>
        <mxCell id="9QJ5XjCFfJWJ0kEMM4Fc-39" value="" style="endArrow=none;html=1;rounded=0;exitX=1;exitY=0.5;exitDx=0;exitDy=0;" edge="1" parent="1" target="9QJ5XjCFfJWJ0kEMM4Fc-19">
          <mxGeometry relative="1" as="geometry">
            <mxPoint x="240" y="440" as="sourcePoint" />
            <mxPoint x="520" y="280" as="targetPoint" />
          </mxGeometry>
        </mxCell>
        <mxCell id="9QJ5XjCFfJWJ0kEMM4Fc-42" value="Número" style="ellipse;whiteSpace=wrap;html=1;align=center;fontStyle=4;" vertex="1" parent="1">
          <mxGeometry x="160" y="240" width="100" height="40" as="geometry" />
        </mxCell>
        <mxCell id="9QJ5XjCFfJWJ0kEMM4Fc-43" value="Nome" style="ellipse;whiteSpace=wrap;html=1;align=center;" vertex="1" parent="1">
          <mxGeometry x="110" y="290" width="100" height="40" as="geometry" />
        </mxCell>
        <mxCell id="9QJ5XjCFfJWJ0kEMM4Fc-47" value="Sigla" style="ellipse;whiteSpace=wrap;html=1;align=center;fontStyle=4;" vertex="1" parent="1">
          <mxGeometry x="140" y="520" width="100" height="40" as="geometry" />
        </mxCell>
        <mxCell id="9QJ5XjCFfJWJ0kEMM4Fc-48" value="Nome" style="ellipse;whiteSpace=wrap;html=1;align=center;" vertex="1" parent="1">
          <mxGeometry x="150" y="580" width="100" height="40" as="geometry" />
        </mxCell>
        <mxCell id="9QJ5XjCFfJWJ0kEMM4Fc-50" value="Carga horária total" style="ellipse;whiteSpace=wrap;html=1;align=center;dashed=1;" vertex="1" parent="1">
          <mxGeometry x="160" y="340" width="100" height="40" as="geometry" />
        </mxCell>
        <mxCell id="9QJ5XjCFfJWJ0kEMM4Fc-52" value="" style="endArrow=none;html=1;rounded=0;entryX=0;entryY=0.5;entryDx=0;entryDy=0;exitX=1;exitY=0;exitDx=0;exitDy=0;" edge="1" parent="1" source="9QJ5XjCFfJWJ0kEMM4Fc-1" target="9QJ5XjCFfJWJ0kEMM4Fc-33">
          <mxGeometry relative="1" as="geometry">
            <mxPoint x="290" y="340" as="sourcePoint" />
            <mxPoint x="450" y="340" as="targetPoint" />
          </mxGeometry>
        </mxCell>
        <mxCell id="9QJ5XjCFfJWJ0kEMM4Fc-53" value="" style="endArrow=none;html=1;rounded=0;entryX=0;entryY=0.5;entryDx=0;entryDy=0;exitX=1;exitY=1;exitDx=0;exitDy=0;" edge="1" parent="1" source="9QJ5XjCFfJWJ0kEMM4Fc-1" target="9QJ5XjCFfJWJ0kEMM4Fc-35">
          <mxGeometry relative="1" as="geometry">
            <mxPoint x="620" y="190" as="sourcePoint" />
            <mxPoint x="450" y="340" as="targetPoint" />
          </mxGeometry>
        </mxCell>
        <mxCell id="9QJ5XjCFfJWJ0kEMM4Fc-54" value="" style="endArrow=none;html=1;rounded=0;exitX=0.947;exitY=0.238;exitDx=0;exitDy=0;entryX=0;entryY=1;entryDx=0;entryDy=0;exitPerimeter=0;" edge="1" parent="1" source="9QJ5XjCFfJWJ0kEMM4Fc-50" target="9QJ5XjCFfJWJ0kEMM4Fc-5">
          <mxGeometry relative="1" as="geometry">
            <mxPoint x="290" y="340" as="sourcePoint" />
            <mxPoint x="450" y="340" as="targetPoint" />
          </mxGeometry>
        </mxCell>
        <mxCell id="9QJ5XjCFfJWJ0kEMM4Fc-55" value="" style="endArrow=none;html=1;rounded=0;exitX=1;exitY=0.5;exitDx=0;exitDy=0;entryX=0;entryY=0.5;entryDx=0;entryDy=0;" edge="1" parent="1" source="9QJ5XjCFfJWJ0kEMM4Fc-43" target="9QJ5XjCFfJWJ0kEMM4Fc-5">
          <mxGeometry relative="1" as="geometry">
            <mxPoint x="290" y="340" as="sourcePoint" />
            <mxPoint x="450" y="340" as="targetPoint" />
          </mxGeometry>
        </mxCell>
        <mxCell id="9QJ5XjCFfJWJ0kEMM4Fc-56" value="" style="endArrow=none;html=1;rounded=0;exitX=0.956;exitY=0.75;exitDx=0;exitDy=0;entryX=0;entryY=0;entryDx=0;entryDy=0;exitPerimeter=0;" edge="1" parent="1" source="9QJ5XjCFfJWJ0kEMM4Fc-42" target="9QJ5XjCFfJWJ0kEMM4Fc-5">
          <mxGeometry relative="1" as="geometry">
            <mxPoint x="290" y="340" as="sourcePoint" />
            <mxPoint x="450" y="340" as="targetPoint" />
          </mxGeometry>
        </mxCell>
        <mxCell id="9QJ5XjCFfJWJ0kEMM4Fc-58" value="" style="endArrow=none;html=1;rounded=0;entryX=0.75;entryY=1;entryDx=0;entryDy=0;exitX=1;exitY=0;exitDx=0;exitDy=0;" edge="1" parent="1" source="9QJ5XjCFfJWJ0kEMM4Fc-8" target="9QJ5XjCFfJWJ0kEMM4Fc-4">
          <mxGeometry relative="1" as="geometry">
            <mxPoint x="180" y="490" as="sourcePoint" />
            <mxPoint x="340" y="490" as="targetPoint" />
          </mxGeometry>
        </mxCell>
        <mxCell id="9QJ5XjCFfJWJ0kEMM4Fc-59" value="(0,N)" style="edgeLabel;html=1;align=center;verticalAlign=middle;resizable=0;points=[];" vertex="1" connectable="0" parent="9QJ5XjCFfJWJ0kEMM4Fc-58">
          <mxGeometry x="0.1377" relative="1" as="geometry">
            <mxPoint as="offset" />
          </mxGeometry>
        </mxCell>
        <mxCell id="9QJ5XjCFfJWJ0kEMM4Fc-60" value="" style="endArrow=none;html=1;rounded=0;exitX=1;exitY=0.5;exitDx=0;exitDy=0;entryX=0;entryY=0.5;entryDx=0;entryDy=0;" edge="1" parent="1" source="9QJ5XjCFfJWJ0kEMM4Fc-47" target="9QJ5XjCFfJWJ0kEMM4Fc-4">
          <mxGeometry relative="1" as="geometry">
            <mxPoint x="180" y="490" as="sourcePoint" />
            <mxPoint x="340" y="490" as="targetPoint" />
          </mxGeometry>
        </mxCell>
        <mxCell id="9QJ5XjCFfJWJ0kEMM4Fc-61" value="" style="endArrow=none;html=1;rounded=0;exitX=1;exitY=0;exitDx=0;exitDy=0;entryX=0;entryY=1;entryDx=0;entryDy=0;" edge="1" parent="1" source="9QJ5XjCFfJWJ0kEMM4Fc-48" target="9QJ5XjCFfJWJ0kEMM4Fc-4">
          <mxGeometry relative="1" as="geometry">
            <mxPoint x="180" y="490" as="sourcePoint" />
            <mxPoint x="340" y="490" as="targetPoint" />
          </mxGeometry>
        </mxCell>
        <mxCell id="9QJ5XjCFfJWJ0kEMM4Fc-65" value="Carga horária" style="ellipse;shape=doubleEllipse;margin=3;whiteSpace=wrap;html=1;align=center;" vertex="1" parent="1">
          <mxGeometry x="140" y="420" width="100" height="40" as="geometry" />
        </mxCell>
      </root>
    </mxGraphModel>
  </diagram>
</mxfile>
